<?xml version="1.0" encoding="utf-8"?><!DOCTYPE svg PUBLIC "-//W3C//DTD SVG 1.1//EN" "http://www.w3.org/Graphics/SVG/1.1/DTD/svg11.dtd"><svg viewBox="0 0 800 800" xmlns="http://www.w3.org/2000/svg" xmlns:xlink="http://www.w3.org/1999/xlink"><style>:root>svg{display:none}:root>svg:target{display:block}</style><svg viewBox="0 0 512 512" xml:space="preserve" id="cow-face-svgrepo-com" xmlns="http://www.w3.org/2000/svg"><path d="M426.031 156.824c6.125-9.891 10.438-20.141 12.422-30.188 7.953-40.094-17.984-86.156-63.75-103.547-8.453-3.219-13.156 3.984-8.219 11.359 12.031 17.906 21.844 51.125 3.984 73.922-1.625 2.094-3.391 3.984-5.188 5.797l-22.03-15.468h-174.5l-22.031 15.469c-1.797-1.813-3.563-3.703-5.188-5.797-17.859-22.797-8.047-56.016 3.984-73.922 4.938-7.375.234-14.578-8.219-11.359-45.765 17.39-71.702 63.453-63.749 103.547 1.984 10.047 6.297 20.297 12.422 30.188L0 217.184s63.984 63.984 119.375 19.75c0 31.594 13.828 67.938 44.641 89.25l16.578 66.078c-20.547 6.125-35.531 25.141-35.531 47.672 0 27.484 22.266 49.766 49.75 49.766h122.375c27.484 0 49.766-22.281 49.766-49.766 0-22.531-15-41.547-35.547-47.672L348 326.184c30.797-21.313 44.625-57.656 44.625-89.25C448.016 281.168 512 217.184 512 217.184l-85.969-60.36z" style="fill:#000"/></svg><svg viewBox="0 0 475.695 475.696" xml:space="preserve" id="cow-silhouette-svgrepo-com" xmlns="http://www.w3.org/2000/svg"><path d="m473.006 155.496-51.252-53.468 22.307-14.227 1.302-11.088-10.347-.617-26.834 19.301-33.485.029-20.498-12.516-7.342 1.499.108 8.137 13.213 14.634-1.742 7.687-155.498 16.723-161.069-4.498-17.357 7.276-12.785 16.246-6.578 38-1.162 27.316L0 241.437l1.096 25.405 4.484.917 6.518-7.176 5.299-23.837-4.295-33.068 1.494-.225 10.096 50.342-6.877 43.69 6.279 87.196.598 9.656 6.119 5.22 27.055.042 8.718-2.637-24.205-39.417 12.008-50.056 6.289.011 21.943 66.553 11.311 17.086 5.58 3.435 29.865.022 3.832-4.795-25.853-15.881-17.529-53.984 4.394-8.764 10.297.956 6.465 15.83 9.365-15.43 9.074 15.496 7.686-16.826 22.623-17.39 80.279-7.688 13.474 16.473 11.356 80.53 5.974 11.571 27.354-.011 2.949-4.336-16.626-23.141-1.998-44.065 8.978 4.983 9.457 29.271 12.027 38.008 5.393 4.181 24.474.015 2.032-5.527-7.155-6.622-23.078-45.101 5.32-47.266 25.86-19.129 37.67-69.969 43.357-20.016 39.871-4.539 3.418-3.706 5.58-15.726z"/></svg></svg>