<?xml version="1.0" standalone="no"?>
<!DOCTYPE svg PUBLIC "-//W3C//DTD SVG 20010904//EN"
 "http://www.w3.org/TR/2001/REC-SVG-20010904/DTD/svg10.dtd">
<svg version="1.0" xmlns="http://www.w3.org/2000/svg"
 width="1280.000000pt" height="848.000000pt" viewBox="0 0 1280.000000 848.000000"
 preserveAspectRatio="xMidYMid meet">
<metadata>
Created by potrace 1.15, written by Peter Selinger 2001-2017
</metadata>
<g transform="translate(0.000000,848.000000) scale(0.100000,-0.100000)"
fill="#000000" stroke="none">
<path d="M10902 8465 c-83 -19 -169 -59 -210 -98 -34 -32 -71 -98 -111 -197
-12 -30 -30 -64 -39 -75 -9 -12 -75 -50 -146 -85 l-129 -65 -231 0 c-213 -1
-236 -3 -299 -24 -114 -37 -187 -124 -187 -222 0 -15 -7 -43 -16 -64 l-15 -38
-562 6 c-359 3 -706 13 -962 26 -220 11 -566 25 -768 30 -203 5 -372 13 -375
17 -4 3 137 4 313 1 177 -3 302 -2 280 2 -156 33 -1169 44 -1850 22 -1015 -34
-2707 -43 -3015 -16 -96 8 -384 34 -640 56 -497 44 -616 46 -740 14 -70 -18
-154 -57 -167 -78 -4 -7 -25 -23 -45 -36 -21 -12 -65 -52 -99 -89 -66 -72
-199 -266 -199 -290 0 -11 8 -13 36 -7 24 4 34 3 29 -4 -3 -6 -13 -11 -22 -11
-30 0 -101 -49 -121 -85 -30 -51 -51 -127 -58 -216 -7 -77 -6 -79 15 -79 21 0
21 -1 -6 -24 -27 -24 -28 -26 -28 -133 0 -59 8 -207 18 -328 32 -412 46 -620
57 -830 15 -289 20 -335 37 -335 10 0 7 -9 -9 -31 -21 -28 -23 -40 -21 -152 2
-144 12 -212 53 -367 17 -63 33 -150 37 -192 4 -57 10 -78 20 -78 10 0 7 -9
-9 -31 -20 -27 -23 -42 -23 -127 0 -144 13 -232 33 -232 16 -1 16 -1 0 -10
-28 -17 -82 -97 -171 -257 -66 -117 -82 -153 -69 -153 11 0 6 -7 -15 -19 -39
-24 -71 -78 -123 -205 -21 -54 -48 -112 -60 -130 -25 -41 -25 -47 -2 -39 9 3
1 -8 -19 -25 -47 -40 -72 -100 -103 -247 -14 -66 -33 -138 -42 -160 -14 -32
-17 -74 -18 -210 l-1 -170 35 -5 c29 -5 31 -7 14 -12 -12 -3 -30 -18 -39 -32
-17 -26 -17 -31 9 -139 30 -130 32 -159 10 -232 -18 -65 -47 -103 -91 -121
-18 -8 -33 -16 -33 -19 0 -13 131 -75 159 -75 46 0 151 102 151 147 0 27 -5
34 -35 44 l-35 13 33 11 c26 8 33 16 35 43 l3 32 25 -29 c14 -17 34 -33 45
-36 19 -6 19 -8 3 -19 -16 -12 -16 -30 -9 -212 8 -204 8 -228 5 -349 -1 -75
23 -162 58 -213 11 -15 27 -54 36 -86 18 -62 134 -302 192 -396 19 -30 59
-118 90 -195 31 -77 64 -147 73 -155 9 -8 29 -60 44 -114 36 -129 72 -204 104
-219 23 -10 28 -8 52 20 l26 31 28 -22 c26 -19 44 -21 183 -24 122 -3 154 -1
154 10 0 42 -88 185 -165 268 -31 33 -33 42 -54 193 -14 105 -30 178 -46 216
-25 61 -74 237 -100 360 -11 55 -12 76 -4 82 8 5 4 29 -14 85 -15 44 -38 124
-52 179 -13 55 -32 105 -40 111 -12 9 -13 13 -4 16 11 4 52 267 62 398 2 19
17 69 34 110 46 109 76 234 71 291 -5 45 -4 47 29 63 18 9 36 23 39 31 9 21
24 19 24 -4 0 -11 10 -27 22 -35 l22 -16 -22 0 c-12 0 -22 -3 -22 -8 0 -4 16
-70 35 -147 40 -158 73 -236 134 -315 70 -92 191 -354 261 -568 60 -180 65
-192 88 -192 l25 0 -27 -26 c-14 -15 -31 -45 -37 -68 -22 -81 11 -158 139
-320 26 -32 63 -102 92 -171 53 -126 85 -176 134 -206 28 -17 29 -19 9 -19
-13 0 -23 -4 -23 -9 0 -22 52 -187 71 -224 44 -88 82 -107 117 -61 l19 27 32
-24 c30 -22 43 -24 182 -27 82 -2 149 -1 149 3 0 3 -11 21 -24 38 -13 18 -45
70 -71 117 -27 47 -59 99 -72 117 -13 17 -20 33 -14 35 5 1 -15 89 -45 193
-40 141 -54 207 -54 255 0 178 -35 301 -98 351 -25 19 -25 19 -3 19 28 0 25
11 -44 150 -28 58 -62 131 -75 163 -24 57 -24 58 -6 89 17 27 18 42 10 132
-11 131 -11 237 0 259 6 13 4 17 -14 17 l-23 0 24 23 c23 20 42 69 68 173 6
22 20 49 31 59 18 17 21 17 45 1 36 -24 82 -100 101 -166 9 -30 20 -63 25 -73
6 -11 5 -17 -1 -17 -30 0 9 -92 46 -109 63 -28 135 -1 165 64 l18 40 -26 5
c-26 5 -26 5 10 22 44 21 60 45 86 127 49 157 124 146 177 -25 15 -49 32 -96
39 -104 7 -8 11 -20 8 -26 -6 -19 51 -71 90 -82 48 -13 95 0 130 36 34 36 38
51 46 189 8 122 17 143 62 143 57 0 273 102 285 135 3 7 16 16 30 19 53 14
203 176 278 300 40 66 45 88 19 80 -11 -3 -8 2 7 13 45 32 70 65 81 107 6 23
13 46 15 53 2 8 51 -5 151 -38 255 -86 385 -118 584 -144 310 -39 464 -48 839
-49 367 -1 505 6 784 40 131 15 172 30 61 21 -111 -9 -1 9 175 28 80 8 210 29
289 45 218 45 244 42 286 -42 14 -29 33 -66 42 -81 8 -15 19 -56 23 -90 5 -34
14 -98 21 -142 6 -44 11 -138 10 -210 -1 -71 2 -175 7 -230 7 -89 5 -108 -14
-175 -13 -41 -35 -118 -49 -170 -14 -52 -39 -121 -55 -154 -16 -32 -32 -73
-36 -91 -10 -53 25 -302 51 -365 12 -30 37 -111 55 -180 17 -69 40 -150 50
-180 10 -30 21 -104 25 -165 8 -116 24 -176 54 -210 11 -11 28 -55 40 -98 23
-86 73 -201 98 -229 22 -25 48 -23 71 6 l19 25 48 -25 c44 -22 60 -24 182 -24
73 0 133 3 133 6 0 3 -8 18 -19 32 -10 15 -42 69 -71 121 -29 52 -68 111 -86
131 -24 26 -30 40 -23 50 17 27 9 75 -27 160 -19 47 -42 104 -51 128 -8 23
-26 51 -40 62 l-25 19 21 27 c29 37 27 97 -5 209 -30 104 -28 147 11 189 13
14 31 49 40 78 17 58 53 276 53 327 1 32 71 282 97 344 12 29 13 28 45 -69 40
-120 62 -166 106 -220 30 -38 33 -45 23 -72 -7 -22 -7 -70 1 -164 18 -223 19
-228 46 -228 29 0 32 -16 4 -25 -11 -3 -22 -16 -24 -28 -2 -12 -16 -75 -32
-141 l-27 -118 17 -77 c18 -79 50 -172 110 -326 32 -83 33 -90 16 -93 -17 -3
-16 -9 12 -85 47 -129 78 -193 108 -222 23 -22 31 -25 49 -16 11 6 25 20 31
31 11 20 11 20 41 -2 28 -21 43 -23 185 -26 85 -2 154 -1 154 2 0 3 -35 53
-77 110 -84 113 -112 163 -136 241 -9 28 -28 84 -43 125 -25 71 -26 79 -15
140 7 36 14 79 17 95 3 17 6 102 7 190 1 123 -2 168 -13 194 -14 31 -14 39 8
110 31 101 87 272 97 294 6 13 2 17 -16 17 -23 0 -23 1 5 19 55 36 117 158
161 313 9 32 15 66 14 75 -1 10 1 25 4 33 3 8 20 94 37 190 17 96 42 207 55
245 25 75 85 314 85 340 0 8 4 23 10 33 5 9 29 60 54 112 55 118 84 147 165
166 34 8 76 21 94 30 56 28 147 89 147 98 0 5 -42 6 -92 3 -99 -6 -100 -6 82
28 115 22 228 83 314 169 40 39 93 103 118 141 25 39 53 77 63 85 10 8 27 35
37 60 25 56 88 330 76 330 -4 0 1 9 12 20 24 24 41 64 90 207 21 62 45 125 54
140 9 15 29 64 45 108 16 44 56 136 89 205 49 104 70 137 123 190 87 88 243
320 226 337 -3 2 5 14 17 26 13 13 60 97 105 187 46 91 101 186 122 212 22 26
46 66 55 90 26 76 63 126 134 185 62 51 120 116 120 136 0 4 -35 8 -77 9 -71
1 -68 2 37 8 164 10 767 10 815 1 30 -7 7 -9 -90 -10 l-130 -2 40 -21 c22 -11
77 -43 123 -69 148 -88 210 -104 332 -88 142 19 296 91 330 154 8 14 28 34 45
45 40 25 111 125 142 199 28 69 30 124 4 150 -10 10 -22 34 -26 52 -34 169
-153 332 -274 375 l-36 13 38 1 c20 0 37 4 37 8 0 4 -25 48 -56 98 -83 130
-106 185 -103 242 2 26 11 61 20 77 10 17 25 71 35 120 9 50 23 100 30 112 16
25 63 52 148 84 30 11 70 34 88 51 35 34 87 73 178 134 64 44 79 61 80 92 0
57 -168 163 -288 181 -77 12 -209 2 -422 -34 -85 -14 -188 -28 -228 -32 -68
-6 -77 -4 -163 33 -81 34 -88 39 -60 42 17 2 31 6 31 9 0 3 -20 34 -45 68
-164 231 -488 374 -723 320z"/>
</g>
</svg>
