<?xml version="1.0" standalone="no"?><!DOCTYPE svg PUBLIC "-//W3C//DTD SVG 1.1//EN" "http://www.w3.org/Graphics/SVG/1.1/DTD/svg11.dtd"><svg viewBox="0 0 1706.667 1130.667" xmlns="http://www.w3.org/2000/svg" xmlns:xlink="http://www.w3.org/1999/xlink"><style>:root>svg{display:none}:root>svg:target{display:block}</style><svg version="1.0" viewBox="0 0 1280 848" id="cow" xmlns="http://www.w3.org/2000/svg"><path d="M1090.2 1.5c-8.3 1.9-16.9 5.9-21 9.8-3.4 3.2-7.1 9.8-11.1 19.7-1.2 3-3 6.4-3.9 7.5-.9 1.2-7.5 5-14.6 8.5l-12.9 6.5h-23.1c-21.3.1-23.6.3-29.9 2.4-11.4 3.7-18.7 12.4-18.7 22.2 0 1.5-.7 4.3-1.6 6.4l-1.5 3.8-56.2-.6c-35.9-.3-70.6-1.3-96.2-2.6-22-1.1-56.6-2.5-76.8-3-20.3-.5-37.2-1.3-37.5-1.7-.4-.3 13.7-.4 31.3-.1 17.7.3 30.2.2 28-.2-15.6-3.3-116.9-4.4-185-2.2C458 81.3 288.8 82.2 258 79.5c-9.6-.8-38.4-3.4-64-5.6-49.7-4.4-61.6-4.6-74-1.4-7 1.8-15.4 5.7-16.7 7.8-.4.7-2.5 2.3-4.5 3.6-2.1 1.2-6.5 5.2-9.9 8.9-6.6 7.2-19.9 26.6-19.9 29 0 1.1.8 1.3 3.6.7 2.4-.4 3.4-.3 2.9.4-.3.6-1.3 1.1-2.2 1.1-3 0-10.1 4.9-12.1 8.5-3 5.1-5.1 12.7-5.8 21.6-.7 7.7-.6 7.9 1.5 7.9s2.1.1-.6 2.4c-2.7 2.4-2.8 2.6-2.8 13.3 0 5.9.8 20.7 1.8 32.8 3.2 41.2 4.6 62 5.7 83 1.5 28.9 2 33.5 3.7 33.5 1 0 .7.9-.9 3.1-2.1 2.8-2.3 4-2.1 15.2.2 14.4 1.2 21.2 5.3 36.7 1.7 6.3 3.3 15 3.7 19.2.4 5.7 1 7.8 2 7.8s.7.9-.9 3.1c-2 2.7-2.3 4.2-2.3 12.7 0 14.4 1.3 23.2 3.3 23.2 1.6.1 1.6.1 0 1-2.8 1.7-8.2 9.7-17.1 25.7-6.6 11.7-8.2 15.3-6.9 15.3 1.1 0 .6.7-1.5 1.9-3.9 2.4-7.1 7.8-12.3 20.5-2.1 5.4-4.8 11.2-6 13-2.5 4.1-2.5 4.7-.2 3.9.9-.3.1.8-1.9 2.5-4.7 4-7.2 10-10.3 24.7-1.4 6.6-3.3 13.8-4.2 16-1.4 3.2-1.7 7.4-1.8 21l-.1 17 3.5.5c2.9.5 3.1.7 1.4 1.2-1.2.3-3 1.8-3.9 3.2-1.7 2.6-1.7 3.1.9 13.9 3 13 3.2 15.9 1 23.2-1.8 6.5-4.7 10.3-9.1 12.1-1.8.8-3.3 1.6-3.3 1.9 0 1.3 13.1 7.5 15.9 7.5 4.6 0 15.1-10.2 15.1-14.7 0-2.7-.5-3.4-3.5-4.4l-3.5-1.3 3.3-1.1c2.6-.8 3.3-1.6 3.5-4.3l.3-3.2 2.5 2.9c1.4 1.7 3.4 3.3 4.5 3.6 1.9.6 1.9.8.3 1.9-1.6 1.2-1.6 3-.9 21.2.8 20.4.8 22.8.5 34.9-.1 7.5 2.3 16.2 5.8 21.3 1.1 1.5 2.7 5.4 3.6 8.6 1.8 6.2 13.4 30.2 19.2 39.6 1.9 3 5.9 11.8 9 19.5 3.1 7.7 6.4 14.7 7.3 15.5.9.8 2.9 6 4.4 11.4 3.6 12.9 7.2 20.4 10.4 21.9 2.3 1 2.8.8 5.2-2l2.6-3.1 2.8 2.2c2.6 1.9 4.4 2.1 18.3 2.4 12.2.3 15.4.1 15.4-1 0-4.2-8.8-18.5-16.5-26.8-3.1-3.3-3.3-4.2-5.4-19.3-1.4-10.5-3-17.8-4.6-21.6-2.5-6.1-7.4-23.7-10-36-1.1-5.5-1.2-7.6-.4-8.2.8-.5.4-2.9-1.4-8.5-1.5-4.4-3.8-12.4-5.2-17.9-1.3-5.5-3.2-10.5-4-11.1-1.2-.9-1.3-1.3-.4-1.6 1.1-.4 5.2-26.7 6.2-39.8.2-1.9 1.7-6.9 3.4-11 4.6-10.9 7.6-23.4 7.1-29.1-.5-4.5-.4-4.7 2.9-6.3 1.8-.9 3.6-2.3 3.9-3.1.9-2.1 2.4-1.9 2.4.4 0 1.1 1 2.7 2.2 3.5l2.2 1.6h-2.2c-1.2 0-2.2.3-2.2.8 0 .4 1.6 7 3.5 14.7 4 15.8 7.3 23.6 13.4 31.5 7 9.2 19.1 35.4 26.1 56.8 6 18 6.5 19.2 8.8 19.2h2.5l-2.7 2.6c-1.4 1.5-3.1 4.5-3.7 6.8-2.2 8.1 1.1 15.8 13.9 32 2.6 3.2 6.3 10.2 9.2 17.1 5.3 12.6 8.5 17.6 13.4 20.6 2.8 1.7 2.9 1.9.9 1.9-1.3 0-2.3.4-2.3.9 0 2.2 5.2 18.7 7.1 22.4 4.4 8.8 8.2 10.7 11.7 6.1l1.9-2.7 3.2 2.4c3 2.2 4.3 2.4 18.2 2.7 8.2.2 14.9.1 14.9-.3 0-.3-1.1-2.1-2.4-3.8-1.3-1.8-4.5-7-7.1-11.7-2.7-4.7-5.9-9.9-7.2-11.7-1.3-1.7-2-3.3-1.4-3.5.5-.1-1.5-8.9-4.5-19.3-4-14.1-5.4-20.7-5.4-25.5 0-17.8-3.5-30.1-9.8-35.1-2.5-1.9-2.5-1.9-.3-1.9 2.8 0 2.5-1.1-4.4-15-2.8-5.8-6.2-13.1-7.5-16.3-2.4-5.7-2.4-5.8-.6-8.9 1.7-2.7 1.8-4.2 1-13.2-1.1-13.1-1.1-23.7 0-25.9.6-1.3.4-1.7-1.4-1.7h-2.3l2.4-2.3c2.3-2 4.2-6.9 6.8-17.3.6-2.2 2-4.9 3.1-5.9 1.8-1.7 2.1-1.7 4.5-.1 3.6 2.4 8.2 10 10.1 16.6.9 3 2 6.3 2.5 7.3.6 1.1.5 1.7-.1 1.7-3 0 .9 9.2 4.6 10.9 6.3 2.8 13.5.1 16.5-6.4l1.8-4-2.6-.5c-2.6-.5-2.6-.5 1-2.2 4.4-2.1 6-4.5 8.6-12.7 4.9-15.7 12.4-14.6 17.7 2.5 1.5 4.9 3.2 9.6 3.9 10.4.7.8 1.1 2 .8 2.6-.6 1.9 5.1 7.1 9 8.2 4.8 1.3 9.5 0 13-3.6 3.4-3.6 3.8-5.1 4.6-18.9.8-12.2 1.7-14.3 6.2-14.3 5.7 0 27.3-10.2 28.5-13.5.3-.7 1.6-1.6 3-1.9 5.3-1.4 20.3-17.6 27.8-30 4-6.6 4.5-8.8 1.9-8-1.1.3-.8-.2.7-1.3 4.5-3.2 7-6.5 8.1-10.7.6-2.3 1.3-4.6 1.5-5.3.2-.8 5.1.5 15.1 3.8 25.5 8.6 38.5 11.8 58.4 14.4 31 3.9 46.4 4.8 83.9 4.9 36.7.1 50.5-.6 78.4-4 13.1-1.5 17.2-3 6.1-2.1-11.1.9-.1-.9 17.5-2.8 8-.8 21-2.9 28.9-4.5 21.8-4.5 24.4-4.2 28.6 4.2 1.4 2.9 3.3 6.6 4.2 8.1.8 1.5 1.9 5.6 2.3 9 .5 3.4 1.4 9.8 2.1 14.2.6 4.4 1.1 13.8 1 21-.1 7.1.2 17.5.7 23 .7 8.9.5 10.8-1.4 17.5-1.3 4.1-3.5 11.8-4.9 17-1.4 5.2-3.9 12.1-5.5 15.4-1.6 3.2-3.2 7.3-3.6 9.1-1 5.3 2.5 30.2 5.1 36.5 1.2 3 3.7 11.1 5.5 18 1.7 6.9 4 15 5 18s2.1 10.4 2.5 16.5c.8 11.6 2.4 17.6 5.4 21 1.1 1.1 2.8 5.5 4 9.8 2.3 8.6 7.3 20.1 9.8 22.9 2.2 2.5 4.8 2.3 7.1-.6l1.9-2.5 4.8 2.5c4.4 2.2 6 2.4 18.2 2.4 7.3 0 13.3-.3 13.3-.6s-.8-1.8-1.9-3.2c-1-1.5-4.2-6.9-7.1-12.1-2.9-5.2-6.8-11.1-8.6-13.1-2.4-2.6-3-4-2.3-5 1.7-2.7.9-7.5-2.7-16-1.9-4.7-4.2-10.4-5.1-12.8-.8-2.3-2.6-5.1-4-6.2l-2.5-1.9 2.1-2.7c2.9-3.7 2.7-9.7-.5-20.9-3-10.4-2.8-14.7 1.1-18.9 1.3-1.4 3.1-4.9 4-7.8 1.7-5.8 5.3-27.6 5.3-32.7.1-3.2 7.1-28.2 9.7-34.4 1.2-2.9 1.3-2.8 4.5 6.9 4 12 6.2 16.6 10.6 22 3 3.8 3.3 4.5 2.3 7.2-.7 2.2-.7 7 .1 16.4 1.8 22.3 1.9 22.8 4.6 22.8 2.9 0 3.2 1.6.4 2.5-1.1.3-2.2 1.6-2.4 2.8-.2 1.2-1.6 7.5-3.2 14.1l-2.7 11.8 1.7 7.7c1.8 7.9 5 17.2 11 32.6 3.2 8.3 3.3 9 1.6 9.3-1.7.3-1.6.9 1.2 8.5 4.7 12.9 7.8 19.3 10.8 22.2 2.3 2.2 3.1 2.5 4.9 1.6 1.1-.6 2.5-2 3.1-3.1 1.1-2 1.1-2 4.1.2 2.8 2.1 4.3 2.3 18.5 2.6 8.5.2 15.4.1 15.4-.2 0-.3-3.5-5.3-7.7-11-8.4-11.3-11.2-16.3-13.6-24.1-.9-2.8-2.8-8.4-4.3-12.5-2.5-7.1-2.6-7.9-1.5-14 .7-3.6 1.4-7.9 1.7-9.5.3-1.7.6-10.2.7-19 .1-12.3-.2-16.8-1.3-19.4-1.4-3.1-1.4-3.9.8-11 3.1-10.1 8.7-27.2 9.7-29.4.6-1.3.2-1.7-1.6-1.7-2.3 0-2.3-.1.5-1.9 5.5-3.6 11.7-15.8 16.1-31.3.9-3.2 1.5-6.6 1.4-7.5-.1-1 .1-2.5.4-3.3.3-.8 2-9.4 3.7-19 1.7-9.6 4.2-20.7 5.5-24.5 2.5-7.5 8.5-31.4 8.5-34 0-.8.4-2.3 1-3.3.5-.9 2.9-6 5.4-11.2 5.5-11.8 8.4-14.7 16.5-16.6 3.4-.8 7.6-2.1 9.4-3 5.6-2.8 14.7-8.9 14.7-9.8 0-.5-4.2-.6-9.2-.3-9.9.6-10 .6 8.2-2.8 11.5-2.2 22.8-8.3 31.4-16.9 4-3.9 9.3-10.3 11.8-14.1 2.5-3.9 5.3-7.7 6.3-8.5 1-.8 2.7-3.5 3.7-6 2.5-5.6 8.8-33 7.6-33-.4 0 .1-.9 1.2-2 2.4-2.4 4.1-6.4 9-20.7 2.1-6.2 4.5-12.5 5.4-14 .9-1.5 2.9-6.4 4.5-10.8s5.6-13.6 8.9-20.5c4.9-10.4 7-13.7 12.3-19 8.7-8.8 24.3-32 22.6-33.7-.3-.2.5-1.4 1.7-2.6 1.3-1.3 6-9.7 10.5-18.7 4.6-9.1 10.1-18.6 12.2-21.2 2.2-2.6 4.6-6.6 5.5-9 2.6-7.6 6.3-12.6 13.4-18.5 6.2-5.1 12-11.6 12-13.6 0-.4-3.5-.8-7.7-.9-7.1-.1-6.8-.2 3.7-.8 16.4-1 76.7-1 81.5-.1 3 .7.7.9-9 1l-13 .2 4 2.1c2.2 1.1 7.7 4.3 12.3 6.9 14.8 8.8 21 10.4 33.2 8.8 14.2-1.9 29.6-9.1 33-15.4.8-1.4 2.8-3.4 4.5-4.5 4-2.5 11.1-12.5 14.2-19.9 2.8-6.9 3-12.4.4-15-1-1-2.2-3.4-2.6-5.2-3.4-16.9-15.3-33.2-27.4-37.5l-3.6-1.3 3.8-.1c2 0 3.7-.4 3.7-.8s-2.5-4.8-5.6-9.8c-8.3-13-10.6-18.5-10.3-24.2.2-2.6 1.1-6.1 2-7.7 1-1.7 2.5-7.1 3.5-12 .9-5 2.3-10 3-11.2 1.6-2.5 6.3-5.2 14.8-8.4 3-1.1 7-3.4 8.8-5.1 3.5-3.4 8.7-7.3 17.8-13.4 6.4-4.4 7.9-6.1 8-9.2 0-5.7-16.8-16.3-28.8-18.1-7.7-1.2-20.9-.2-42.2 3.4-8.5 1.4-18.8 2.8-22.8 3.2-6.8.6-7.7.4-16.3-3.3-8.1-3.4-8.8-3.9-6-4.2 1.7-.2 3.1-.6 3.1-.9 0-.3-2-3.4-4.5-6.8-16.4-23.1-48.8-37.4-72.3-32z"/></svg><svg viewBox="0 0 512 512" xml:space="preserve" id="cow-face-svgrepo-com" xmlns="http://www.w3.org/2000/svg"><path d="M426.031 156.824c6.125-9.891 10.438-20.141 12.422-30.188 7.953-40.094-17.984-86.156-63.75-103.547-8.453-3.219-13.156 3.984-8.219 11.359 12.031 17.906 21.844 51.125 3.984 73.922-1.625 2.094-3.391 3.984-5.188 5.797l-22.03-15.468h-174.5l-22.031 15.469c-1.797-1.813-3.563-3.703-5.188-5.797-17.859-22.797-8.047-56.016 3.984-73.922 4.938-7.375.234-14.578-8.219-11.359-45.765 17.39-71.702 63.453-63.749 103.547 1.984 10.047 6.297 20.297 12.422 30.188L0 217.184s63.984 63.984 119.375 19.75c0 31.594 13.828 67.938 44.641 89.25l16.578 66.078c-20.547 6.125-35.531 25.141-35.531 47.672 0 27.484 22.266 49.766 49.75 49.766h122.375c27.484 0 49.766-22.281 49.766-49.766 0-22.531-15-41.547-35.547-47.672L348 326.184c30.797-21.313 44.625-57.656 44.625-89.25C448.016 281.168 512 217.184 512 217.184l-85.969-60.36z" style="fill:#000"/></svg><svg viewBox="0 0 475.695 475.696" xml:space="preserve" id="cow-silhouette-svgrepo-com" xmlns="http://www.w3.org/2000/svg"><path d="m473.006 155.496-51.252-53.468 22.307-14.227 1.302-11.088-10.347-.617-26.834 19.301-33.485.029-20.498-12.516-7.342 1.499.108 8.137 13.213 14.634-1.742 7.687-155.498 16.723-161.069-4.498-17.357 7.276-12.785 16.246-6.578 38-1.162 27.316L0 241.437l1.096 25.405 4.484.917 6.518-7.176 5.299-23.837-4.295-33.068 1.494-.225 10.096 50.342-6.877 43.69 6.279 87.196.598 9.656 6.119 5.22 27.055.042 8.718-2.637-24.205-39.417 12.008-50.056 6.289.011 21.943 66.553 11.311 17.086 5.58 3.435 29.865.022 3.832-4.795-25.853-15.881-17.529-53.984 4.394-8.764 10.297.956 6.465 15.83 9.365-15.43 9.074 15.496 7.686-16.826 22.623-17.39 80.279-7.688 13.474 16.473 11.356 80.53 5.974 11.571 27.354-.011 2.949-4.336-16.626-23.141-1.998-44.065 8.978 4.983 9.457 29.271 12.027 38.008 5.393 4.181 24.474.015 2.032-5.527-7.155-6.622-23.078-45.101 5.32-47.266 25.86-19.129 37.67-69.969 43.357-20.016 39.871-4.539 3.418-3.706 5.58-15.726z"/></svg></svg>